<svg xmlns="http://www.w3.org/2000/svg" xmlns:xlink="http://www.w3.org/1999/xlink" style="margin:auto;background:#000000;display:block;z-index:1;position:relative" width="1920" height="1080" preserveAspectRatio="xMidYMid" viewBox="0 0 1920 1084">
<g transform="translate(960,542) scale(1,1) translate(-960,-542)"><path id="path0" d="M 39.123925205055095 962.959113882183
c 0 35.852468246576684 -8.772412443311316 10.298049389974155 -19.07046183328547 10.298049389974155
S 0.9830015384841531 998.8115821287597 0.9830015384841531 962.959113882183
s 8.772412443311316 -10.298049389974155 19.07046183328547 -10.298049389974155
S 39.123925205055095 927.1066456356064 39.123925205055095 962.959113882183
z" fill="none" stroke="none"></path>
<circle cx="0" cy="0" r="8.618523452074022" fill="#008fd4" opacity="0.9">
  <animateMotion begin="-1.4470822220157837s" dur="4.83s" repeatCount="indefinite">
    <mpath xlink:href="#path0"></mpath>
  </animateMotion>
</circle><path id="path1" d="M 393.9079404932786 306.6083340503755
c 0 37.44649090345892 -9.162439263612288 10.755906961631817 -19.918346225244107 10.755906961631817
S 354.07124804279033 344.05482495383444 354.07124804279033 306.6083340503755
s 9.162439263612288 -10.755906961631817 19.918346225244107 -10.755906961631817
S 393.9079404932786 269.16184314691657 393.9079404932786 306.6083340503755
z" fill="none" stroke="none"></path>
<circle cx="0" cy="0" r="7.0320200782342415" fill="#001f2d" opacity="0.9">
  <animateMotion begin="-3.676663535881776s" dur="4.83s" repeatCount="indefinite">
    <mpath xlink:href="#path1"></mpath>
  </animateMotion>
</circle><path id="path2" d="M 1481.9937518808772 935.2884903901008
c 0 20.527183428225737 -5.022608711161616 5.896105878320159 -10.918714589481775 5.896105878320159
S 1460.1563227019135 955.8156738183266 1460.1563227019135 935.2884903901008
s 5.022608711161616 -5.896105878320159 10.918714589481775 -5.896105878320159
S 1481.9937518808772 914.7613069618751 1481.9937518808772 935.2884903901008
z" fill="none" stroke="none"></path>
<circle cx="0" cy="0" r="8.85202757668179" fill="#008fd4" opacity="0.9">
  <animateMotion begin="-4.158505221620808s" dur="4.83s" repeatCount="indefinite">
    <mpath xlink:href="#path2"></mpath>
  </animateMotion>
</circle><path id="path3" d="M 1726.407690354036 539.6140646561628
c 0 33.13639435970077 -8.107841173118274 9.517900507573627 -17.6257416806919 9.517900507573627
S 1691.1562069926524 572.7504590158635 1691.1562069926524 539.6140646561628
s 8.107841173118274 -9.517900507573627 17.6257416806919 -9.517900507573627
S 1726.407690354036 506.477670296462 1726.407690354036 539.6140646561628
z" fill="none" stroke="none"></path>
<circle cx="0" cy="0" r="5.910527308533236" fill="#008fd4" opacity="0.9">
  <animateMotion begin="-0.916072929793255s" dur="4.83s" repeatCount="indefinite">
    <mpath xlink:href="#path3"></mpath>
  </animateMotion>
</circle><path id="path4" d="M 1570.9595419403838 279.9191080707205
c 0 26.643055256465907 -6.519045435092721 7.652792467282761 -14.171837902375481 7.652792467282761
S 1542.6158661356328 306.5621633271864 1542.6158661356328 279.9191080707205
s 6.519045435092721 -7.652792467282761 14.171837902375481 -7.652792467282761
S 1570.9595419403838 253.27605281425457 1570.9595419403838 279.9191080707205
z" fill="none" stroke="none"></path>
<circle cx="0" cy="0" r="5.4360889702961" fill="#001f2d" opacity="0.9">
  <animateMotion begin="-3.358114741228395s" dur="4.83s" repeatCount="indefinite">
    <mpath xlink:href="#path4"></mpath>
  </animateMotion>
</circle><path id="path5" d="M 1923.395733580163 827.4102302769364
c 0 23.11662632782113 -5.656195803615808 6.639882030331601 -12.29607783394741 6.639882030331601
S 1898.803577912268 850.5268566047575 1898.803577912268 827.4102302769364
s 5.656195803615808 -6.639882030331601 12.29607783394741 -6.639882030331601
S 1923.395733580163 804.2936039491153 1923.395733580163 827.4102302769364
z" fill="none" stroke="none"></path>
<circle cx="0" cy="0" r="7.693612276740167" fill="#001f2d" opacity="0.9">
  <animateMotion begin="-2.3953026927805796s" dur="4.83s" repeatCount="indefinite">
    <mpath xlink:href="#path5"></mpath>
  </animateMotion>
</circle><path id="path6" d="M 97.91482958720557 914.4583793925792
c 0 28.71450563383841 -7.025889676364717 8.2477835331238 -15.273673209488516 8.2477835331238
S 67.36748316822853 943.1728850264176 67.36748316822853 914.4583793925792
s 7.025889676364717 -8.2477835331238 15.273673209488516 -8.2477835331238
S 97.91482958720557 885.7438737587408 97.91482958720557 914.4583793925792
z" fill="none" stroke="none"></path>
<circle cx="0" cy="0" r="6.228281819175879" fill="#008fd4" opacity="0.9">
  <animateMotion begin="-0.056103404684184004s" dur="4.83s" repeatCount="indefinite">
    <mpath xlink:href="#path6"></mpath>
  </animateMotion>
</circle><path id="path7" d="M 1547.0960939262177 750.9437218943946
c 0 34.044174479754126 -8.329957585471753 9.778645861205971 -18.108603446677726 9.778645861205971
S 1510.8788870328622 784.9878963741487 1510.8788870328622 750.9437218943946
s 8.329957585471753 -9.778645861205971 18.108603446677726 -9.778645861205971
S 1547.0960939262177 716.8995474146404 1547.0960939262177 750.9437218943946
z" fill="none" stroke="none"></path>
<circle cx="0" cy="0" r="5.547948863361672" fill="#001f2d" opacity="0.9">
  <animateMotion begin="-3.4243201316242615s" dur="4.83s" repeatCount="indefinite">
    <mpath xlink:href="#path7"></mpath>
  </animateMotion>
</circle><path id="path8" d="M 492.9910782282494 528.548159545745
c 0 21.39437009268976 -5.234792682253877 6.145191409602377 -11.379984091856254 6.145191409602377
S 470.2311100445369 549.9425296384347 470.2311100445369 528.548159545745
s 5.234792682253877 -6.145191409602377 11.379984091856254 -6.145191409602377
S 492.9910782282494 507.1537894530552 492.9910782282494 528.548159545745
z" fill="none" stroke="none"></path>
<circle cx="0" cy="0" r="6.862353963885396" fill="#008fd4" opacity="0.9">
  <animateMotion begin="-4.388908481281687s" dur="4.83s" repeatCount="indefinite">
    <mpath xlink:href="#path8"></mpath>
  </animateMotion>
</circle><path id="path9" d="M 1310.2325426407967 8.234936029768162
c 0 25.604385159754646 -6.2649027518548595 7.354451056525271 -13.61935380838013 7.354451056525271
S 1282.9938350240366 33.839321189522806 1282.9938350240366 8.234936029768162
s 6.2649027518548595 -7.354451056525271 13.61935380838013 -7.354451056525271
S 1310.2325426407967 -17.369449129986485 1310.2325426407967 8.234936029768162
z" fill="none" stroke="none"></path>
<circle cx="0" cy="0" r="6.6884673800217" fill="#001f2d" opacity="0.9">
  <animateMotion begin="-3.3628511119848423s" dur="4.83s" repeatCount="indefinite">
    <mpath xlink:href="#path9"></mpath>
  </animateMotion>
</circle><path id="path10" d="M 542.5883031839612 963.3783154167475
c 0 23.227259114667664 -5.683265528056981 6.671659532936457 -12.354925060993438 6.671659532936457
S 517.8784530619744 986.6055745314151 517.8784530619744 963.3783154167475
s 5.683265528056981 -6.671659532936457 12.354925060993438 -6.671659532936457
S 542.5883031839612 940.1510563020798 542.5883031839612 963.3783154167475
z" fill="none" stroke="none"></path>
<circle cx="0" cy="0" r="5.897487125925677" fill="#008fd4" opacity="0.9">
  <animateMotion begin="-1.7699561454553323s" dur="4.83s" repeatCount="indefinite">
    <mpath xlink:href="#path10"></mpath>
  </animateMotion>
</circle><path id="path11" d="M 1516.159398087563 751.8091617207621
c 0 23.72651894504271 -5.8054248482551305 6.815063952299502 -12.620488800554632 6.815063952299502
S 1490.918420486454 775.5356806658048 1490.918420486454 751.8091617207621
s 5.8054248482551305 -6.815063952299502 12.620488800554632 -6.815063952299502
S 1516.159398087563 728.0826427757194 1516.159398087563 751.8091617207621
z" fill="none" stroke="none"></path>
<circle cx="0" cy="0" r="9.432339028454832" fill="#008fd4" opacity="0.9">
  <animateMotion begin="-0.9710609306749465s" dur="4.83s" repeatCount="indefinite">
    <mpath xlink:href="#path11"></mpath>
  </animateMotion>
</circle><path id="path12" d="M 1433.3849182370184 221.81161550207398
c 0 33.241460620738856 -8.133548875287165 9.548079114467544 -17.68162798975471 9.548079114467544
S 1398.0216622575088 255.05307612281283 1398.0216622575088 221.81161550207398
s 8.133548875287165 -9.548079114467544 17.68162798975471 -9.548079114467544
S 1433.3849182370184 188.57015488133513 1433.3849182370184 221.81161550207398
z" fill="none" stroke="none"></path>
<circle cx="0" cy="0" r="6.411062590028904" fill="#008fd4" opacity="0.9">
  <animateMotion begin="-1.9512510669676826s" dur="4.83s" repeatCount="indefinite">
    <mpath xlink:href="#path12"></mpath>
  </animateMotion>
</circle><path id="path13" d="M 1764.6541620380026 271.5108117231132
c 0 28.860097253243755 -7.0615131577085775 8.289602402527462 -15.351115560236039 8.289602402527462
S 1733.9519309175307 300.37090897635693 1733.9519309175307 271.5108117231132
s 7.0615131577085775 -8.289602402527462 15.351115560236039 -8.289602402527462
S 1764.6541620380026 242.65071446986943 1764.6541620380026 271.5108117231132
z" fill="none" stroke="none"></path>
<circle cx="0" cy="0" r="5.561252166758282" fill="#008fd4" opacity="0.9">
  <animateMotion begin="-4.798800254213846s" dur="4.83s" repeatCount="indefinite">
    <mpath xlink:href="#path13"></mpath>
  </animateMotion>
</circle><path id="path14" d="M 1004.5917182704453 758.8743549494775
c 0 31.57125400394067 -7.724881298836546 9.068338916025512 -16.793220214862057 9.068338916025512
S 971.0052778407213 790.4456089534182 971.0052778407213 758.8743549494775
s 7.724881298836546 -9.068338916025512 16.793220214862057 -9.068338916025512
S 1004.5917182704453 727.3031009455368 1004.5917182704453 758.8743549494775
z" fill="none" stroke="none"></path>
<circle cx="0" cy="0" r="8.890658125761279" fill="#001f2d" opacity="0.9">
  <animateMotion begin="-0.31561034052566456s" dur="4.83s" repeatCount="indefinite">
    <mpath xlink:href="#path14"></mpath>
  </animateMotion>
</circle><path id="path15" d="M 1375.8274093122006 481.1727416183527
c 0 27.499699575799486 -6.728649896206257 7.898849878155171 -14.627499774361429 7.898849878155171
S 1346.5724097634777 508.67244119415216 1346.5724097634777 481.1727416183527
s 6.728649896206257 -7.898849878155171 14.627499774361429 -7.898849878155171
S 1375.8274093122006 453.6730420425532 1375.8274093122006 481.1727416183527
z" fill="none" stroke="none"></path>
<circle cx="0" cy="0" r="5.421789367649495" fill="#001f2d" opacity="0.9">
  <animateMotion begin="-2.808752534102894s" dur="4.83s" repeatCount="indefinite">
    <mpath xlink:href="#path15"></mpath>
  </animateMotion>
</circle><path id="path16" d="M 1524.26750049911 623.4310966999608
c 0 36.21185803466792 -8.860348242525129 10.401278371659934 -19.26162661418506 10.401278371659934
S 1485.7442472707396 659.6429547346287 1485.7442472707396 623.4310966999608
s 8.860348242525129 -10.401278371659934 19.26162661418506 -10.401278371659934
S 1524.26750049911 587.2192386652929 1524.26750049911 623.4310966999608
z" fill="none" stroke="none"></path>
<circle cx="0" cy="0" r="5.565730113321262" fill="#001f2d" opacity="0.9">
  <animateMotion begin="-3.0034254601287187s" dur="4.83s" repeatCount="indefinite">
    <mpath xlink:href="#path16"></mpath>
  </animateMotion>
</circle><path id="path17" d="M 1434.2973097263855 1034.147189283347
c 0 28.32753564089167 -6.931205529154345 8.136632577702928 -15.067838106857272 8.136632577702928
S 1404.1616335126707 1062.4747249242387 1404.1616335126707 1034.147189283347
s 6.931205529154345 -8.136632577702928 15.067838106857272 -8.136632577702928
S 1434.2973097263855 1005.8196536424553 1434.2973097263855 1034.147189283347
z" fill="none" stroke="none"></path>
<circle cx="0" cy="0" r="8.153003893311679" fill="#008fd4" opacity="0.9">
  <animateMotion begin="-1.670616142033291s" dur="4.83s" repeatCount="indefinite">
    <mpath xlink:href="#path17"></mpath>
  </animateMotion>
</circle><path id="path18" d="M 208.27612928407666 847.8948700572375
c 0 36.234844428419564 -8.86597257291117 10.40788084646094 -19.27385341937211 10.40788084646094
S 169.72842244533246 884.1297144856571 169.72842244533246 847.8948700572375
s 8.86597257291117 -10.40788084646094 19.27385341937211 -10.40788084646094
S 208.27612928407666 811.660025628818 208.27612928407666 847.8948700572375
z" fill="none" stroke="none"></path>
<circle cx="0" cy="0" r="7.48027659241483" fill="#008fd4" opacity="0.9">
  <animateMotion begin="-4.506892648597082s" dur="4.83s" repeatCount="indefinite">
    <mpath xlink:href="#path18"></mpath>
  </animateMotion>
</circle><path id="path19" d="M 1173.0628850860553 739.4028726349233
c 0 27.607554991390735 -6.755040051084967 7.929829625186701 -14.684869676271667 7.929829625186701
S 1143.6931457335118 767.010427626314 1143.6931457335118 739.4028726349233
s 6.755040051084967 -7.929829625186701 14.684869676271667 -7.929829625186701
S 1173.0628850860553 711.7953176435325 1173.0628850860553 739.4028726349233
z" fill="none" stroke="none"></path>
<circle cx="0" cy="0" r="8.57428923463413" fill="#001f2d" opacity="0.9">
  <animateMotion begin="-1.0414027719464385s" dur="4.83s" repeatCount="indefinite">
    <mpath xlink:href="#path19"></mpath>
  </animateMotion>
</circle><path id="path20" d="M 1022.6114475483076 483.153125198908
c 0 23.923869126819238 -5.853712658689814 6.871749642809782 -12.725462301499595 6.871749642809782
S 997.1605229453083 507.07699432572724 997.1605229453083 483.153125198908
s 5.853712658689814 -6.871749642809782 12.725462301499595 -6.871749642809782
S 1022.6114475483076 459.2292560720888 1022.6114475483076 483.153125198908
z" fill="none" stroke="none"></path>
<circle cx="0" cy="0" r="8.288372217584733" fill="#001f2d" opacity="0.9">
  <animateMotion begin="-4.399155911830148s" dur="4.83s" repeatCount="indefinite">
    <mpath xlink:href="#path20"></mpath>
  </animateMotion>
</circle><path id="path21" d="M 1161.998021560981 412.30290152990005
c 0 18.857877214515746 -4.614161446104916 5.416624306297076 -10.030785752401991 5.416624306297076
S 1141.9364500561771 431.1607787444158 1141.9364500561771 412.30290152990005
s 4.614161446104916 -5.416624306297076 10.030785752401991 -5.416624306297076
S 1161.998021560981 393.44502431538433 1161.998021560981 412.30290152990005
z" fill="none" stroke="none"></path>
<circle cx="0" cy="0" r="8.592514475302675" fill="#008fd4" opacity="0.9">
  <animateMotion begin="-2.9491262298504552s" dur="4.83s" repeatCount="indefinite">
    <mpath xlink:href="#path21"></mpath>
  </animateMotion>
</circle><path id="path22" d="M 37.34660197960812 48.3238570709459
c 0 31.008930061851093 -7.587291398112501 8.906820336914675 -16.494111735027175 8.906820336914675
S 4.358378509553766 79.332787132797 4.358378509553766 48.3238570709459
s 7.587291398112501 -8.906820336914675 16.494111735027175 -8.906820336914675
S 37.34660197960812 17.314927009094806 37.34660197960812 48.3238570709459
z" fill="none" stroke="none"></path>
<circle cx="0" cy="0" r="7.662979890410492" fill="#001f2d" opacity="0.9">
  <animateMotion begin="-2.952654143916903s" dur="4.83s" repeatCount="indefinite">
    <mpath xlink:href="#path22"></mpath>
  </animateMotion>
</circle><path id="path23" d="M 1112.9830971108174 537.7439692557564
c 0 22.734267715855744 -5.562639973028532 6.530055620511756 -12.092695593540288 6.530055620511756
S 1088.7977059237367 560.4782369716121 1088.7977059237367 537.7439692557564
s 5.562639973028532 -6.530055620511756 12.092695593540288 -6.530055620511756
S 1112.9830971108174 515.0097015399007 1112.9830971108174 537.7439692557564
z" fill="none" stroke="none"></path>
<circle cx="0" cy="0" r="6.83619499570919" fill="#001f2d" opacity="0.9">
  <animateMotion begin="-4.136035050225746s" dur="4.83s" repeatCount="indefinite">
    <mpath xlink:href="#path23"></mpath>
  </animateMotion>
</circle><path id="path24" d="M 978.6970462885901 1032.2133912326544
c 0 21.951905746901602 -5.371210980624859 6.305334629429184 -11.676545610054044 6.305334629429184
S 955.3439550684819 1054.165296979556 955.3439550684819 1032.2133912326544
s 5.371210980624859 -6.305334629429184 11.676545610054044 -6.305334629429184
S 978.6970462885901 1010.2614854857528 978.6970462885901 1032.2133912326544
z" fill="none" stroke="none"></path>
<circle cx="0" cy="0" r="6.2035600330679594" fill="#001f2d" opacity="0.9">
  <animateMotion begin="-3.8858470372395044s" dur="4.83s" repeatCount="indefinite">
    <mpath xlink:href="#path24"></mpath>
  </animateMotion>
</circle><path id="path25" d="M 768.6550143630407 1018.9002071127113
c 0 27.12780775548282 -6.637655089107498 7.792029887213151 -14.42968497632065 7.792029887213151
S 739.7956444103993 1046.028014868194 739.7956444103993 1018.9002071127113
s 6.637655089107498 -7.792029887213151 14.42968497632065 -7.792029887213151
S 768.6550143630407 991.7723993572286 768.6550143630407 1018.9002071127113
z" fill="none" stroke="none"></path>
<circle cx="0" cy="0" r="7.525072789216169" fill="#001f2d" opacity="0.9">
  <animateMotion begin="-4.261060829001626s" dur="4.83s" repeatCount="indefinite">
    <mpath xlink:href="#path25"></mpath>
  </animateMotion>
</circle><path id="path26" d="M 1181.751608877718 912.3145754441715
c 0 26.886166935815027 -6.578530207699421 7.722622417734104 -14.301152625433524 7.722622417734104
S 1153.1493036268507 939.2007423799865 1153.1493036268507 912.3145754441715
s 6.578530207699421 -7.722622417734104 14.301152625433524 -7.722622417734104
S 1181.751608877718 885.4284085083565 1181.751608877718 912.3145754441715
z" fill="none" stroke="none"></path>
<circle cx="0" cy="0" r="8.595355928295232" fill="#001f2d" opacity="0.9">
  <animateMotion begin="-4.190826011334637s" dur="4.83s" repeatCount="indefinite">
    <mpath xlink:href="#path26"></mpath>
  </animateMotion>
</circle><path id="path27" d="M 1215.4788233924305 18.876275777978634
c 0 30.429400387501946 -7.445491584176008 8.740359685771836 -16.185851269947843 8.740359685771836
S 1183.107120852535 49.30567616548058 1183.107120852535 18.876275777978634
s 7.445491584176008 -8.740359685771836 16.185851269947843 -8.740359685771836
S 1215.4788233924305 -11.553124609523312 1215.4788233924305 18.876275777978634
z" fill="none" stroke="none"></path>
<circle cx="0" cy="0" r="7.531801487048102" fill="#001f2d" opacity="0.9">
  <animateMotion begin="-1.0479670027205576s" dur="4.83s" repeatCount="indefinite">
    <mpath xlink:href="#path27"></mpath>
  </animateMotion>
</circle><path id="path28" d="M 894.9792060651614 312.18217850492607
c 0 30.193359048278797 -7.387736788408641 8.672560577697102 -16.060297366105743 8.672560577697102
S 862.85861133295 342.3755375532049 862.85861133295 312.18217850492607
s 7.387736788408641 -8.672560577697102 16.060297366105743 -8.672560577697102
S 894.9792060651614 281.98881945664726 894.9792060651614 312.18217850492607
z" fill="none" stroke="none"></path>
<circle cx="0" cy="0" r="8.32547767283128" fill="#001f2d" opacity="0.9">
  <animateMotion begin="-3.8651743292526035s" dur="4.83s" repeatCount="indefinite">
    <mpath xlink:href="#path28"></mpath>
  </animateMotion>
</circle><path id="path29" d="M 1050.8571847092994 285.8777150492334
c 0 26.22393385741342 -6.416494454473495 7.532406533512366 -13.948900987985862 7.532406533512366
S 1022.9593827333277 312.10164890664686 1022.9593827333277 285.8777150492334
s 6.416494454473495 -7.532406533512366 13.948900987985862 -7.532406533512366
S 1050.8571847092994 259.65378119182 1050.8571847092994 285.8777150492334
z" fill="none" stroke="none"></path>
<circle cx="0" cy="0" r="7.857863742653219" fill="#001f2d" opacity="0.9">
  <animateMotion begin="-4.4293043818749895s" dur="4.83s" repeatCount="indefinite">
    <mpath xlink:href="#path29"></mpath>
  </animateMotion>
</circle><path id="path30" d="M 242.06547372696645 792.4582547878316
c 0 19.521821280253196 -4.776615845168335 5.607331644328046 -10.383947489496382 5.607331644328046
S 221.29757874797366 811.9800760680848 221.29757874797366 792.4582547878316
s 4.776615845168335 -5.607331644328046 10.383947489496382 -5.607331644328046
S 242.06547372696645 772.9364335075784 242.06547372696645 792.4582547878316
z" fill="none" stroke="none"></path>
<circle cx="0" cy="0" r="5.55009054722235" fill="#008fd4" opacity="0.9">
  <animateMotion begin="-0.9083810239447386s" dur="4.83s" repeatCount="indefinite">
    <mpath xlink:href="#path30"></mpath>
  </animateMotion>
</circle><path id="path31" d="M 1657.2193450886944 389.21174885441724
c 0 31.9476397597512 -7.81697568589657 9.17644971822641 -16.99342540412298 9.17644971822641
S 1623.2324942804485 421.15938861416845 1623.2324942804485 389.21174885441724
s 7.81697568589657 -9.17644971822641 16.99342540412298 -9.17644971822641
S 1657.2193450886944 357.264109094666 1657.2193450886944 389.21174885441724
z" fill="none" stroke="none"></path>
<circle cx="0" cy="0" r="7.498437278619889" fill="#008fd4" opacity="0.9">
  <animateMotion begin="-2.459974235521688s" dur="4.83s" repeatCount="indefinite">
    <mpath xlink:href="#path31"></mpath>
  </animateMotion>
</circle><path id="path32" d="M 313.33335328121854 1012.0756877699171
c 0 33.57437330100296 -8.215006233224127 9.64370296943702 -17.858709202661146 9.64370296943702
S 277.61593487589624 1045.65006107092 277.61593487589624 1012.0756877699171
s 8.215006233224127 -9.64370296943702 17.858709202661146 -9.64370296943702
S 313.33335328121854 978.5013144689141 313.33335328121854 1012.0756877699171
z" fill="none" stroke="none"></path>
<circle cx="0" cy="0" r="8.627250395292327" fill="#008fd4" opacity="0.9">
  <animateMotion begin="-3.0149114344288317s" dur="4.83s" repeatCount="indefinite">
    <mpath xlink:href="#path32"></mpath>
  </animateMotion>
</circle><path id="path33" d="M 1725.1083248214254 299.28623874852804
c 0 31.72076714991435 -7.761464302638617 9.111284181358378 -16.872748483996997 9.111284181358378
S 1691.3628278534316 331.0070058984424 1691.3628278534316 299.28623874852804
s 7.761464302638617 -9.111284181358378 16.872748483996997 -9.111284181358378
S 1725.1083248214254 267.56547159861367 1725.1083248214254 299.28623874852804
z" fill="none" stroke="none"></path>
<circle cx="0" cy="0" r="5.00592859741786" fill="#001f2d" opacity="0.9">
  <animateMotion begin="-1.2557423058655621s" dur="4.83s" repeatCount="indefinite">
    <mpath xlink:href="#path33"></mpath>
  </animateMotion>
</circle><path id="path34" d="M 714.5448583069922 865.8598156936649
c 0 21.36205176175545 -5.226885005535907 6.135908484759544 -11.36279349029545 6.135908484759544
S 691.8192713264013 887.2218674554204 691.8192713264013 865.8598156936649
s 5.226885005535907 -6.135908484759544 11.36279349029545 -6.135908484759544
S 714.5448583069922 844.4977639319095 714.5448583069922 865.8598156936649
z" fill="none" stroke="none"></path>
<circle cx="0" cy="0" r="7.872016791045793" fill="#008fd4" opacity="0.9">
  <animateMotion begin="-0.028825068831282358s" dur="4.83s" repeatCount="indefinite">
    <mpath xlink:href="#path34"></mpath>
  </animateMotion>
</circle><path id="path35" d="M 1457.3982497036093 691.1331023530918
c 0 30.00489518121891 -7.341623289021647 8.618427339286283 -15.960050628307929 8.618427339286283
S 1425.4781484469934 721.1379975343107 1425.4781484469934 691.1331023530918
s 7.341623289021647 -8.618427339286283 15.960050628307929 -8.618427339286283
S 1457.3982497036093 661.1282071718729 1457.3982497036093 691.1331023530918
z" fill="none" stroke="none"></path>
<circle cx="0" cy="0" r="6.700772864374449" fill="#008fd4" opacity="0.9">
  <animateMotion begin="-2.2907154557614953s" dur="4.83s" repeatCount="indefinite">
    <mpath xlink:href="#path35"></mpath>
  </animateMotion>
</circle><path id="path36" d="M 1231.7540396954023 720.3201269302912
c 0 36.22071685955266 -8.862515827337353 10.40382292774385 -19.266338755081204 10.40382292774385
S 1193.2213621852397 756.5408437898438 1193.2213621852397 720.3201269302912
s 8.862515827337353 -10.40382292774385 19.266338755081204 -10.40382292774385
S 1231.7540396954023 684.0994100707385 1231.7540396954023 720.3201269302912
z" fill="none" stroke="none"></path>
<circle cx="0" cy="0" r="7.2091274685159625" fill="#008fd4" opacity="0.9">
  <animateMotion begin="-2.8257745195040234s" dur="4.83s" repeatCount="indefinite">
    <mpath xlink:href="#path36"></mpath>
  </animateMotion>
</circle><path id="path37" d="M 300.5365280128238 369.3239066576325
c 0 28.256222527409676 -6.913756575855558 8.11614902383044 -15.029905599685998 8.11614902383044
S 270.4767168134518 397.5801291850422 270.4767168134518 369.3239066576325
s 6.913756575855558 -8.11614902383044 15.029905599685998 -8.11614902383044
S 300.5365280128238 341.0676841302228 300.5365280128238 369.3239066576325
z" fill="none" stroke="none"></path>
<circle cx="0" cy="0" r="9.870209237062737" fill="#008fd4" opacity="0.9">
  <animateMotion begin="-2.037174376918156s" dur="4.83s" repeatCount="indefinite">
    <mpath xlink:href="#path37"></mpath>
  </animateMotion>
</circle><path id="path38" d="M 935.4927826990798 804.5015869475254
c 0 23.97355440988296 -5.865869696035192 6.886020947519574 -12.751890643554766 6.886020947519574
S 909.9890014119702 828.4751413574083 909.9890014119702 804.5015869475254
s 5.865869696035192 -6.886020947519574 12.751890643554766 -6.886020947519574
S 935.4927826990798 780.5280325376425 935.4927826990798 804.5015869475254
z" fill="none" stroke="none"></path>
<circle cx="0" cy="0" r="7.367442661034582" fill="#008fd4" opacity="0.9">
  <animateMotion begin="-0.5512427276925637s" dur="4.83s" repeatCount="indefinite">
    <mpath xlink:href="#path38"></mpath>
  </animateMotion>
</circle><path id="path39" d="M 1342.8804047955114 270.4134804072665
c 0 26.579939259980424 -6.5036021593569115 7.634663404462462 -14.138265563819374 7.634663404462462
S 1314.6038736678724 296.99341966724694 1314.6038736678724 270.4134804072665
s 6.5036021593569115 -7.634663404462462 14.138265563819374 -7.634663404462462
S 1342.8804047955114 243.83354114728607 1342.8804047955114 270.4134804072665
z" fill="none" stroke="none"></path>
<circle cx="0" cy="0" r="6.488343772475331" fill="#001f2d" opacity="0.9">
  <animateMotion begin="-1.1976712449956752s" dur="4.83s" repeatCount="indefinite">
    <mpath xlink:href="#path39"></mpath>
  </animateMotion>
</circle><path id="path40" d="M 96.66578686547263 169.1717774076728
c 0 19.69349026713036 -4.818619958978704 5.656640821409784 -10.475260780388489 5.656640821409784
S 75.71526530469566 188.86526767480316 75.71526530469566 169.1717774076728
s 4.818619958978704 -5.656640821409784 10.475260780388489 -5.656640821409784
S 96.66578686547263 149.47828714054245 96.66578686547263 169.1717774076728
z" fill="none" stroke="none"></path>
<circle cx="0" cy="0" r="9.055402395681826" fill="#008fd4" opacity="0.9">
  <animateMotion begin="-3.108308415233991s" dur="4.83s" repeatCount="indefinite">
    <mpath xlink:href="#path40"></mpath>
  </animateMotion>
</circle><path id="path41" d="M 349.2255793944204 646.5399883274827
c 0 35.93483004451705 -8.792564798126511 10.321706502148514 -19.114271300275025 10.321706502148514
S 310.9970367938703 682.4748183719997 310.9970367938703 646.5399883274827
s 8.792564798126511 -10.321706502148514 19.114271300275025 -10.321706502148514
S 349.2255793944204 610.6051582829656 349.2255793944204 646.5399883274827
z" fill="none" stroke="none"></path>
<circle cx="0" cy="0" r="6.444712463330587" fill="#001f2d" opacity="0.9">
  <animateMotion begin="-4.2149850922643735s" dur="4.83s" repeatCount="indefinite">
    <mpath xlink:href="#path41"></mpath>
  </animateMotion>
</circle><path id="path42" d="M 139.74923051252523 252.14311937312544
c 0 34.74534168301735 -8.501519773504244 9.980044951504983 -18.48156472500923 9.980044951504983
S 102.78610106250679 286.8884610561428 102.78610106250679 252.14311937312544
s 8.501519773504244 -9.980044951504983 18.48156472500923 -9.980044951504983
S 139.74923051252523 217.3977776901081 139.74923051252523 252.14311937312544
z" fill="none" stroke="none"></path>
<circle cx="0" cy="0" r="6.467530625132526" fill="#001f2d" opacity="0.9">
  <animateMotion begin="-0.9864266359977882s" dur="4.83s" repeatCount="indefinite">
    <mpath xlink:href="#path42"></mpath>
  </animateMotion>
</circle><path id="path43" d="M 411.33464543574877 711.199565158653
c 0 25.88727846074228 -6.33412132550077 7.435707642979166 -13.769828968479935 7.435707642979166
S 383.7949874987889 737.0868436193953 383.7949874987889 711.199565158653
s 6.33412132550077 -7.435707642979166 13.769828968479935 -7.435707642979166
S 411.33464543574877 685.3122866979106 411.33464543574877 711.199565158653
z" fill="none" stroke="none"></path>
<circle cx="0" cy="0" r="5.691473625006313" fill="#008fd4" opacity="0.9">
  <animateMotion begin="-4.72074638731938s" dur="4.83s" repeatCount="indefinite">
    <mpath xlink:href="#path43"></mpath>
  </animateMotion>
</circle><path id="path44" d="M 390.27599901446695 513.9984509660076
c 0 26.30911300650456 -6.437336161166009 7.556872884847055 -13.994209046013065 7.556872884847055
S 362.28758092244084 540.3075639725121 362.28758092244084 513.9984509660076
s 6.437336161166009 -7.556872884847055 13.994209046013065 -7.556872884847055
S 390.27599901446695 487.689337959503 390.27599901446695 513.9984509660076
z" fill="none" stroke="none"></path>
<circle cx="0" cy="0" r="5.557160582953222" fill="#001f2d" opacity="0.9">
  <animateMotion begin="-4.529942004720433s" dur="4.83s" repeatCount="indefinite">
    <mpath xlink:href="#path44"></mpath>
  </animateMotion>
</circle><path id="path45" d="M 179.8903567300091 792.4958984217312
c 0 26.952946418859472 -6.594869868444338 7.7418037586085715 -14.33667362705291 7.7418037586085715
S 151.2170094759033 819.4488448405907 151.2170094759033 792.4958984217312
s 6.594869868444338 -7.7418037586085715 14.33667362705291 -7.7418037586085715
S 179.8903567300091 765.5429520028717 179.8903567300091 792.4958984217312
z" fill="none" stroke="none"></path>
<circle cx="0" cy="0" r="9.534931474812128" fill="#008fd4" opacity="0.9">
  <animateMotion begin="-4.362074579265568s" dur="4.83s" repeatCount="indefinite">
    <mpath xlink:href="#path45"></mpath>
  </animateMotion>
</circle><path id="path46" d="M 1056.2751065723423 544.1355902461006
c 0 21.142907305863304 -5.173264553562298 6.072962736790524 -11.246227290352822 6.072962736790524
S 1033.7826519916366 565.2784975519639 1033.7826519916366 544.1355902461006
s 5.173264553562298 -6.072962736790524 11.246227290352822 -6.072962736790524
S 1056.2751065723423 522.9926829402373 1056.2751065723423 544.1355902461006
z" fill="none" stroke="none"></path>
<circle cx="0" cy="0" r="6.508486364273604" fill="#008fd4" opacity="0.9">
  <animateMotion begin="-1.4358462175688778s" dur="4.83s" repeatCount="indefinite">
    <mpath xlink:href="#path46"></mpath>
  </animateMotion>
</circle><path id="path47" d="M 1186.1153042854228 697.7693412260014
c 0 31.915763378487053 -7.809176145800023 9.16729373637394 -16.976469882173962 9.16729373637394
S 1152.162364521075 729.6851046044885 1152.162364521075 697.7693412260014
s 7.809176145800023 -9.16729373637394 16.976469882173962 -9.16729373637394
S 1186.1153042854228 665.8535778475143 1186.1153042854228 697.7693412260014
z" fill="none" stroke="none"></path>
<circle cx="0" cy="0" r="9.822609131707633" fill="#008fd4" opacity="0.9">
  <animateMotion begin="-4.466597537477876s" dur="4.83s" repeatCount="indefinite">
    <mpath xlink:href="#path47"></mpath>
  </animateMotion>
</circle><path id="path48" d="M 1897.7791680964217 754.7774505702973
c 0 33.44073516554809 -8.182307540506446 9.605317547551047 -17.787625088057492 9.605317547551047
S 1862.2039179203068 788.2181857358454 1862.2039179203068 754.7774505702973
s 8.182307540506446 -9.605317547551047 17.787625088057492 -9.605317547551047
S 1897.7791680964217 721.3367154047493 1897.7791680964217 754.7774505702973
z" fill="none" stroke="none"></path>
<circle cx="0" cy="0" r="9.045857919529096" fill="#001f2d" opacity="0.9">
  <animateMotion begin="-1.1248043079155068s" dur="4.83s" repeatCount="indefinite">
    <mpath xlink:href="#path48"></mpath>
  </animateMotion>
</circle><path id="path49" d="M 1111.559147677811 472.23020309568733
c 0 25.713542224675262 -6.291611395399266 7.385804681555661 -13.677416076954927 7.385804681555661
S 1084.2043155239014 497.9437453203626 1084.2043155239014 472.23020309568733
s 6.291611395399266 -7.385804681555661 13.677416076954927 -7.385804681555661
S 1111.559147677811 446.51666087101205 1111.559147677811 472.23020309568733
z" fill="none" stroke="none"></path>
<circle cx="0" cy="0" r="9.165647345503228" fill="#008fd4" opacity="0.9">
  <animateMotion begin="-0.08725036278576817s" dur="4.83s" repeatCount="indefinite">
    <mpath xlink:href="#path49"></mpath>
  </animateMotion>
</circle><path id="path50" d="M 1402.948596330476 199.3428544408073
c 0 19.061382069132733 -4.663955187128222 5.475077828367914 -10.139033015496135 5.475077828367914
S 1382.6705302994837 218.40423650994 1382.6705302994837 199.3428544408073
s 4.663955187128222 -5.475077828367914 10.139033015496135 -5.475077828367914
S 1402.948596330476 180.28147237167457 1402.948596330476 199.3428544408073
z" fill="none" stroke="none"></path>
<circle cx="0" cy="0" r="6.930984462279782" fill="#001f2d" opacity="0.9">
  <animateMotion begin="-3.8312046570012503s" dur="4.83s" repeatCount="indefinite">
    <mpath xlink:href="#path50"></mpath>
  </animateMotion>
</circle><path id="path51" d="M 637.2811931220683 375.5159706066971
c 0 21.020887561301198 -5.1434086586162495 6.0379145122886415 -11.181323170904891 6.0379145122886415
S 614.9185467802586 396.53685816799833 614.9185467802586 375.5159706066971
s 5.1434086586162495 -6.0379145122886415 11.181323170904891 -6.0379145122886415
S 637.2811931220683 354.4950830453959 637.2811931220683 375.5159706066971
z" fill="none" stroke="none"></path>
<circle cx="0" cy="0" r="9.481108465355398" fill="#001f2d" opacity="0.9">
  <animateMotion begin="-1.7441423630747528s" dur="4.83s" repeatCount="indefinite">
    <mpath xlink:href="#path51"></mpath>
  </animateMotion>
</circle><path id="path52" d="M 552.3008675634079 1050.5861978991843
c 0 35.013543040481025 -8.56714350990493 10.057081511627528 -18.62422502153246 10.057081511627528
S 515.052417520343 1085.5997409396653 515.052417520343 1050.5861978991843
s 8.56714350990493 -10.057081511627528 18.62422502153246 -10.057081511627528
S 552.3008675634079 1015.5726548587032 552.3008675634079 1050.5861978991843
z" fill="none" stroke="none"></path>
<circle cx="0" cy="0" r="8.59443923277317" fill="#001f2d" opacity="0.9">
  <animateMotion begin="-0.7058190204342446s" dur="4.83s" repeatCount="indefinite">
    <mpath xlink:href="#path52"></mpath>
  </animateMotion>
</circle><path id="path53" d="M 1409.5098974079099 323.75304759183456
c 0 30.305209775442663 -7.4151045195232035 8.704687914222893 -16.119792433746095 8.704687914222893
S 1377.2703125404175 354.05825736727724 1377.2703125404175 323.75304759183456
s 7.4151045195232035 -8.704687914222893 16.119792433746095 -8.704687914222893
S 1409.5098974079099 293.4478378163919 1409.5098974079099 323.75304759183456
z" fill="none" stroke="none"></path>
<circle cx="0" cy="0" r="6.100244616244414" fill="#001f2d" opacity="0.9">
  <animateMotion begin="-3.9383613679056935s" dur="4.83s" repeatCount="indefinite">
    <mpath xlink:href="#path53"></mpath>
  </animateMotion>
</circle><path id="path54" d="M 1427.303727871114 252.1188521723435
c 0 30.88142484161686 -7.556093312310507 8.870196497060162 -16.42628980937067 8.870196497060162
S 1394.4511482523726 283.0002770139604 1394.4511482523726 252.1188521723435
s 7.556093312310507 -8.870196497060162 16.42628980937067 -8.870196497060162
S 1427.303727871114 221.23742733072666 1427.303727871114 252.1188521723435
z" fill="none" stroke="none"></path>
<circle cx="0" cy="0" r="8.334423005680229" fill="#008fd4" opacity="0.9">
  <animateMotion begin="-1.331413081670235s" dur="4.83s" repeatCount="indefinite">
    <mpath xlink:href="#path54"></mpath>
  </animateMotion>
</circle><path id="path55" d="M 534.5984779271851 66.33994773271863
c 0 31.366739881220017 -7.674840609234685 9.009595497797239 -16.684436107031924 9.009595497797239
S 501.2296057131212 97.70668761393864 501.2296057131212 66.33994773271863
s 7.674840609234685 -9.009595497797239 16.684436107031924 -9.009595497797239
S 534.5984779271851 34.973207851498614 534.5984779271851 66.33994773271863
z" fill="none" stroke="none"></path>
<circle cx="0" cy="0" r="5.9991824113448065" fill="#001f2d" opacity="0.9">
  <animateMotion begin="-0.7810481238145808s" dur="4.83s" repeatCount="indefinite">
    <mpath xlink:href="#path55"></mpath>
  </animateMotion>
</circle><path id="path56" d="M 239.73006117760886 433.5815837191501
c 0 30.70930561703223 -7.513979033954693 8.820757996381598 -16.334737030336292 8.820757996381598
S 207.06058711693626 464.2908893361823 207.06058711693626 433.5815837191501
s 7.513979033954693 -8.820757996381598 16.334737030336292 -8.820757996381598
S 239.73006117760886 402.8722781021179 239.73006117760886 433.5815837191501
z" fill="none" stroke="none"></path>
<circle cx="0" cy="0" r="7.930649418714626" fill="#008fd4" opacity="0.9">
  <animateMotion begin="-1.8271283678007806s" dur="4.83s" repeatCount="indefinite">
    <mpath xlink:href="#path56"></mpath>
  </animateMotion>
</circle><path id="path57" d="M 1152.7307468911297 830.7405105828841
c 0 33.49838994923486 -8.196414562046828 9.62187796414193 -17.818292526188756 9.62187796414193
S 1117.0941618387521 864.2389005321189 1117.0941618387521 830.7405105828841
s 8.196414562046828 -9.62187796414193 17.818292526188756 -9.62187796414193
S 1152.7307468911297 797.2421206336493 1152.7307468911297 830.7405105828841
z" fill="none" stroke="none"></path>
<circle cx="0" cy="0" r="6.682931567324454" fill="#001f2d" opacity="0.9">
  <animateMotion begin="-1.4714869624575855s" dur="4.83s" repeatCount="indefinite">
    <mpath xlink:href="#path57"></mpath>
  </animateMotion>
</circle><path id="path58" d="M 1049.8445058796774 41.12575026105311
c 0 36.31307597634673 -8.885114334638029 10.430351610227254 -19.31546594486528 10.430351610227254
S 1011.2135739899468 77.43882623739984 1011.2135739899468 41.12575026105311
s 8.885114334638029 -10.430351610227254 19.31546594486528 -10.430351610227254
S 1049.8445058796774 4.812674284706382 1049.8445058796774 41.12575026105311
z" fill="none" stroke="none"></path>
<circle cx="0" cy="0" r="9.0986725772504" fill="#008fd4" opacity="0.9">
  <animateMotion begin="-3.2378531294162083s" dur="4.83s" repeatCount="indefinite">
    <mpath xlink:href="#path58"></mpath>
  </animateMotion>
</circle><path id="path59" d="M 232.8438216330047 140.3782272538445
c 0 24.376574772076584 -5.964481061252781 7.0017821153837 -12.966263176636481 7.0017821153837
S 206.91129527973172 164.7548020259211 206.91129527973172 140.3782272538445
s 5.964481061252781 -7.0017821153837 12.966263176636481 -7.0017821153837
S 232.8438216330047 116.00165248176792 232.8438216330047 140.3782272538445
z" fill="none" stroke="none"></path>
<circle cx="0" cy="0" r="9.582990087150495" fill="#008fd4" opacity="0.9">
  <animateMotion begin="-3.9223579244119833s" dur="4.83s" repeatCount="indefinite">
    <mpath xlink:href="#path59"></mpath>
  </animateMotion>
</circle><path id="path60" d="M 431.1948617446316 728.5775891765925
c 0 19.25869636891535 -4.712234217926095 5.531753212348026 -10.243987430274121 5.531753212348026
S 410.7068868840834 747.8362855455078 410.7068868840834 728.5775891765925
s 4.712234217926095 -5.531753212348026 10.243987430274121 -5.531753212348026
S 431.1948617446316 709.3188928076771 431.1948617446316 728.5775891765925
z" fill="none" stroke="none"></path>
<circle cx="0" cy="0" r="8.745630138124525" fill="#008fd4" opacity="0.9">
  <animateMotion begin="-1.6608392039235726s" dur="4.83s" repeatCount="indefinite">
    <mpath xlink:href="#path60"></mpath>
  </animateMotion>
</circle><path id="path61" d="M 1111.535893919851 760.6099790909126
c 0 29.325355210768674 -7.175352870719993 8.423240326497385 -15.59859319721738 8.423240326497385
S 1080.3387075254166 789.9353343016812 1080.3387075254166 760.6099790909126
s 7.175352870719993 -8.423240326497385 15.59859319721738 -8.423240326497385
S 1111.535893919851 731.284623880144 1111.535893919851 760.6099790909126
z" fill="none" stroke="none"></path>
<circle cx="0" cy="0" r="8.003190598487924" fill="#008fd4" opacity="0.9">
  <animateMotion begin="-3.308936381289617s" dur="4.83s" repeatCount="indefinite">
    <mpath xlink:href="#path61"></mpath>
  </animateMotion>
</circle><path id="path62" d="M 891.7882470092511 429.6606259980607
c 0 19.951555278178812 -4.881763525511836 5.730765877774765 -10.6125294032866 5.730765877774765
S 870.563188202678 449.61218127623954 870.563188202678 429.6606259980607
s 4.881763525511836 -5.730765877774765 10.6125294032866 -5.730765877774765
S 891.7882470092511 409.7090707198819 891.7882470092511 429.6606259980607
z" fill="none" stroke="none"></path>
<circle cx="0" cy="0" r="8.753823752295439" fill="#001f2d" opacity="0.9">
  <animateMotion begin="-1.7446507496125674s" dur="4.83s" repeatCount="indefinite">
    <mpath xlink:href="#path62"></mpath>
  </animateMotion>
</circle><path id="path63" d="M 420.59561463501046 351.1735325759524
c 0 28.952364989377745 -7.084089305911576 8.316104837374459 -15.400194143286035 8.316104837374459
S 389.79522634843835 380.12589756533015 389.79522634843835 351.1735325759524
s 7.084089305911576 -8.316104837374459 15.400194143286035 -8.316104837374459
S 420.59561463501046 322.2211675865746 420.59561463501046 351.1735325759524
z" fill="none" stroke="none"></path>
<circle cx="0" cy="0" r="8.326916139499938" fill="#001f2d" opacity="0.9">
  <animateMotion begin="-0.240568316409048s" dur="4.83s" repeatCount="indefinite">
    <mpath xlink:href="#path63"></mpath>
  </animateMotion>
</circle><path id="path64" d="M 1110.7714151306848 730.9319786133879
c 0 21.099598648573775 -5.162667754438264 6.060523016079702 -11.223190770517967 6.060523016079702
S 1088.325033589649 752.0315772619616 1088.325033589649 730.9319786133879
s 5.162667754438264 -6.060523016079702 11.223190770517967 -6.060523016079702
S 1110.7714151306848 709.8323799648141 1110.7714151306848 730.9319786133879
z" fill="none" stroke="none"></path>
<circle cx="0" cy="0" r="9.485716681709226" fill="#008fd4" opacity="0.9">
  <animateMotion begin="-4.616709343366277s" dur="4.83s" repeatCount="indefinite">
    <mpath xlink:href="#path64"></mpath>
  </animateMotion>
</circle><path id="path65" d="M 575.9852350218848 339.298204017094
c 0 22.745211896416347 -5.565317804442297 6.5331991617366105 -12.098516966178908 6.5331991617366105
S 551.7882010895271 362.04341591351033 551.7882010895271 339.298204017094
s 5.565317804442297 -6.5331991617366105 12.098516966178908 -6.5331991617366105
S 575.9852350218848 316.5529921206777 575.9852350218848 339.298204017094
z" fill="none" stroke="none"></path>
<circle cx="0" cy="0" r="6.64491737559164" fill="#008fd4" opacity="0.9">
  <animateMotion begin="-3.325828739072264s" dur="4.83s" repeatCount="indefinite">
    <mpath xlink:href="#path65"></mpath>
  </animateMotion>
</circle><path id="path66" d="M 886.3645827711821 46.01468074168648
c 0 22.364990078715323 -5.472284806494174 6.423986511971423 -11.896271318465597 6.423986511971423
S 862.572040134251 68.3796708204018 862.572040134251 46.01468074168648
s 5.472284806494174 -6.423986511971423 11.896271318465597 -6.423986511971423
S 886.3645827711821 23.64969066297116 886.3645827711821 46.01468074168648
z" fill="none" stroke="none"></path>
<circle cx="0" cy="0" r="9.461549992750172" fill="#008fd4" opacity="0.9">
  <animateMotion begin="-4.372973133685107s" dur="4.83s" repeatCount="indefinite">
    <mpath xlink:href="#path66"></mpath>
  </animateMotion>
</circle><path id="path67" d="M 715.210803712818 329.76551179074056
c 0 18.89182516785249 -4.622467860219226 5.426375314170397 -10.048843174389624 5.426375314170397
S 695.1131173640388 348.6573369585931 695.1131173640388 329.76551179074056
s 4.622467860219226 -5.426375314170397 10.048843174389624 -5.426375314170397
S 715.210803712818 310.87368662288804 715.210803712818 329.76551179074056
z" fill="none" stroke="none"></path>
<circle cx="0" cy="0" r="7.196489710849061" fill="#001f2d" opacity="0.9">
  <animateMotion begin="-1.056225180238332s" dur="4.83s" repeatCount="indefinite">
    <mpath xlink:href="#path67"></mpath>
  </animateMotion>
</circle><path id="path68" d="M 1661.1022490789035 557.9785924097408
c 0 31.302712841365057 -7.659174418631875 8.991204752306984 -16.650379170938862 8.991204752306984
S 1627.801490737026 589.2813052511059 1627.801490737026 557.9785924097408
s 7.659174418631875 -8.991204752306984 16.650379170938862 -8.991204752306984
S 1661.1022490789035 526.6758795683758 1661.1022490789035 557.9785924097408
z" fill="none" stroke="none"></path>
<circle cx="0" cy="0" r="7.059337350944014" fill="#008fd4" opacity="0.9">
  <animateMotion begin="-4.2092066144779805s" dur="4.83s" repeatCount="indefinite">
    <mpath xlink:href="#path68"></mpath>
  </animateMotion>
</circle><path id="path69" d="M 1803.685152811995 87.93804667022789
c 0 28.527092798525686 -6.9800333443201135 8.19395218681057 -15.173985531130683 8.19395218681057
S 1773.3371817497336 116.46513946875358 1773.3371817497336 87.93804667022789
s 6.9800333443201135 -8.19395218681057 15.173985531130683 -8.19395218681057
S 1803.685152811995 59.410953871702205 1803.685152811995 87.93804667022789
z" fill="none" stroke="none"></path>
<circle cx="0" cy="0" r="9.908273965333311" fill="#008fd4" opacity="0.9">
  <animateMotion begin="-2.0964438056693346s" dur="4.83s" repeatCount="indefinite">
    <mpath xlink:href="#path69"></mpath>
  </animateMotion>
</circle><path id="path70" d="M 1666.7284531604328 481.5318879559564
c 0 27.004570306758964 -6.607501245270809 7.756631896622256 -14.364133141893065 7.756631896622256
S 1638.0001868766467 508.53645826271537 1638.0001868766467 481.5318879559564
s 6.607501245270809 -7.756631896622256 14.364133141893065 -7.756631896622256
S 1666.7284531604328 454.5273176491974 1666.7284531604328 481.5318879559564
z" fill="none" stroke="none"></path>
<circle cx="0" cy="0" r="6.633937118992234" fill="#008fd4" opacity="0.9">
  <animateMotion begin="-2.232163005530939s" dur="4.83s" repeatCount="indefinite">
    <mpath xlink:href="#path70"></mpath>
  </animateMotion>
</circle><path id="path71" d="M 1300.53662830329 123.68315056349934
c 0 28.514068287961262 -6.976846495990521 8.190211103988874 -15.167057599979394 8.190211103988874
S 1270.202513103331 152.1972188514606 1270.202513103331 123.68315056349934
s 6.976846495990521 -8.190211103988874 15.167057599979394 -8.190211103988874
S 1300.53662830329 95.16908227553807 1300.53662830329 123.68315056349934
z" fill="none" stroke="none"></path>
<circle cx="0" cy="0" r="6.2923729503558326" fill="#008fd4" opacity="0.9">
  <animateMotion begin="-4.082614804360058s" dur="4.83s" repeatCount="indefinite">
    <mpath xlink:href="#path71"></mpath>
  </animateMotion>
</circle><path id="path72" d="M 503.9523746553561 833.3479257129561
c 0 22.882115294076026 -5.598815444295197 6.572522478085667 -12.171337922380864 6.572522478085667
S 479.60969881059435 856.2300410070321 479.60969881059435 833.3479257129561
s 5.598815444295197 -6.572522478085667 12.171337922380864 -6.572522478085667
S 503.9523746553561 810.4658104188801 503.9523746553561 833.3479257129561
z" fill="none" stroke="none"></path>
<circle cx="0" cy="0" r="5.638071844915933" fill="#008fd4" opacity="0.9">
  <animateMotion begin="-2.2099718854544337s" dur="4.83s" repeatCount="indefinite">
    <mpath xlink:href="#path72"></mpath>
  </animateMotion>
</circle><path id="path73" d="M 1151.5693984599648 274.43929464099455
c 0 25.64350633301988 -6.274474953824012 7.365687989271668 -13.64016294309568 7.365687989271668
S 1124.2890725737734 300.08280097401445 1124.2890725737734 274.43929464099455
s 6.274474953824012 -7.365687989271668 13.64016294309568 -7.365687989271668
S 1151.5693984599648 248.79578830797468 1151.5693984599648 274.43929464099455
z" fill="none" stroke="none"></path>
<circle cx="0" cy="0" r="9.266331743128495" fill="#001f2d" opacity="0.9">
  <animateMotion begin="-1.5057682536522499s" dur="4.83s" repeatCount="indefinite">
    <mpath xlink:href="#path73"></mpath>
  </animateMotion>
</circle><path id="path74" d="M 1459.1744018262514 781.6535712719515
c 0 26.43328698876841 -6.467719156826312 7.592539879752628 -14.06025903657894 7.592539879752628
S 1431.0538837530937 808.0868582607199 1431.0538837530937 781.6535712719515
s 6.467719156826312 -7.592539879752628 14.06025903657894 -7.592539879752628
S 1459.1744018262514 755.2202842831831 1459.1744018262514 781.6535712719515
z" fill="none" stroke="none"></path>
<circle cx="0" cy="0" r="5.092657771990635" fill="#008fd4" opacity="0.9">
  <animateMotion begin="-1.6691053223528944s" dur="4.83s" repeatCount="indefinite">
    <mpath xlink:href="#path74"></mpath>
  </animateMotion>
</circle><path id="path75" d="M 1361.5765249120561 741.7722814605471
c 0 24.104964122411804 -5.898023136334802 6.923766290479986 -12.821789426814789 6.923766290479986
S 1335.9329460584265 765.877245582959 1335.9329460584265 741.7722814605471
s 5.898023136334802 -6.923766290479986 12.821789426814789 -6.923766290479986
S 1361.5765249120561 717.6673173381353 1361.5765249120561 741.7722814605471
z" fill="none" stroke="none"></path>
<circle cx="0" cy="0" r="9.380209215360962" fill="#001f2d" opacity="0.9">
  <animateMotion begin="-0.35110201232089583s" dur="4.83s" repeatCount="indefinite">
    <mpath xlink:href="#path75"></mpath>
  </animateMotion>
</circle><path id="path76" d="M 648.2573481251246 964.8102167279835
c 0 30.287985422517043 -7.410890050190339 8.699740493701704 -16.110630543892043 8.699740493701704
S 616.0360870373405 995.0982021505006 616.0360870373405 964.8102167279835
s 7.410890050190339 -8.699740493701704 16.110630543892043 -8.699740493701704
S 648.2573481251246 934.5222313054664 648.2573481251246 964.8102167279835
z" fill="none" stroke="none"></path>
<circle cx="0" cy="0" r="7.735292370491113" fill="#001f2d" opacity="0.9">
  <animateMotion begin="-1.8253732347196383s" dur="4.83s" repeatCount="indefinite">
    <mpath xlink:href="#path76"></mpath>
  </animateMotion>
</circle><path id="path77" d="M 865.0462908771915 962.2083022884774
c 0 30.99851828448244 -7.5847438355648515 8.903829720010913 -16.488573555575766 8.903829720010913
S 832.06914376604 993.2068205729598 832.06914376604 962.2083022884774
s 7.5847438355648515 -8.903829720010913 16.488573555575766 -8.903829720010913
S 865.0462908771915 931.209784003995 865.0462908771915 962.2083022884774
z" fill="none" stroke="none"></path>
<circle cx="0" cy="0" r="5.396034181573204" fill="#008fd4" opacity="0.9">
  <animateMotion begin="-3.8902216109152152s" dur="4.83s" repeatCount="indefinite">
    <mpath xlink:href="#path77"></mpath>
  </animateMotion>
</circle><path id="path78" d="M 909.3493707834307 23.075752427268863
c 0 25.47893493820599 -6.234207484880189 7.318417482250657 -13.552624967130846 7.318417482250657
S 882.2441208491689 48.554687365474855 882.2441208491689 23.075752427268863
s 6.234207484880189 -7.318417482250657 13.552624967130846 -7.318417482250657
S 909.3493707834307 -2.4031825109371283 909.3493707834307 23.075752427268863
z" fill="none" stroke="none"></path>
<circle cx="0" cy="0" r="7.1064839631024945" fill="#001f2d" opacity="0.9">
  <animateMotion begin="-1.614301925561503s" dur="4.83s" repeatCount="indefinite">
    <mpath xlink:href="#path78"></mpath>
  </animateMotion>
</circle><path id="path79" d="M 1290.14535612928 450.84691630612565
c 0 23.323977855595434 -5.70693075190101 6.699440447883795 -12.406371199784804 6.699440447883795
S 1265.3326137297101 474.1708941617211 1265.3326137297101 450.84691630612565
s 5.70693075190101 -6.699440447883795 12.406371199784804 -6.699440447883795
S 1290.14535612928 427.5229384505302 1290.14535612928 450.84691630612565
z" fill="none" stroke="none"></path>
<circle cx="0" cy="0" r="7.994467687520035" fill="#008fd4" opacity="0.9">
  <animateMotion begin="-2.046660700080442s" dur="4.83s" repeatCount="indefinite">
    <mpath xlink:href="#path79"></mpath>
  </animateMotion>
</circle><path id="path80" d="M 1329.9608627693688 648.0215830057474
c 0 26.273476634853246 -6.428616623421538 7.54663690575572 -13.975253529177259 7.54663690575572
S 1302.0103557110142 674.2950596406007 1302.0103557110142 648.0215830057474
s 6.428616623421538 -7.54663690575572 13.975253529177259 -7.54663690575572
S 1329.9608627693688 621.7481063708941 1329.9608627693688 648.0215830057474
z" fill="none" stroke="none"></path>
<circle cx="0" cy="0" r="7.3525687593154165" fill="#008fd4" opacity="0.9">
  <animateMotion begin="-2.3609976823478642s" dur="4.83s" repeatCount="indefinite">
    <mpath xlink:href="#path80"></mpath>
  </animateMotion>
</circle><path id="path81" d="M 1871.3604524494626 511.9020651818286
c 0 22.911162758335916 -5.605922802571553 6.580865898670955 -12.186788701242508 6.580865898670955
S 1846.9868750469777 534.8132279401646 1846.9868750469777 511.9020651818286
s 5.605922802571553 -6.580865898670955 12.186788701242508 -6.580865898670955
S 1871.3604524494626 488.9909024234927 1871.3604524494626 511.9020651818286
z" fill="none" stroke="none"></path>
<circle cx="0" cy="0" r="8.506657233586873" fill="#008fd4" opacity="0.9">
  <animateMotion begin="-1.2415596020415212s" dur="4.83s" repeatCount="indefinite">
    <mpath xlink:href="#path81"></mpath>
  </animateMotion>
</circle><path id="path82" d="M 1824.7163801213342 20.627806069625922
c 0 28.182678232114174 -6.895761695091765 8.095024598585987 -14.99078629367775 8.095024598585987
S 1794.7348075339787 48.8104843017401 1794.7348075339787 20.627806069625922
s 6.895761695091765 -8.095024598585987 14.99078629367775 -8.095024598585987
S 1824.7163801213342 -7.554872162488252 1824.7163801213342 20.627806069625922
z" fill="none" stroke="none"></path>
<circle cx="0" cy="0" r="5.456007736135028" fill="#008fd4" opacity="0.9">
  <animateMotion begin="-3.5331176698894753s" dur="4.83s" repeatCount="indefinite">
    <mpath xlink:href="#path82"></mpath>
  </animateMotion>
</circle><path id="path83" d="M 1516.5906444048696 1014.2735325149783
c 0 25.323348516622783 -6.196138466833234 7.273727765412928 -13.469866232246162 7.273727765412928
S 1489.6509119403772 1039.596881031601 1489.6509119403772 1014.2735325149783
s 6.196138466833234 -7.273727765412928 13.469866232246162 -7.273727765412928
S 1516.5906444048696 988.9501839983556 1516.5906444048696 1014.2735325149783
z" fill="none" stroke="none"></path>
<circle cx="0" cy="0" r="5.2041919775822265" fill="#008fd4" opacity="0.9">
  <animateMotion begin="-4.671223710800405s" dur="4.83s" repeatCount="indefinite">
    <mpath xlink:href="#path83"></mpath>
  </animateMotion>
</circle><path id="path84" d="M 1780.3628030002305 766.2856068836658
c 0 20.055734247483485 -4.907254124384257 5.7606896242771715 -10.667943748661429 5.7606896242771715
S 1759.0269155029077 786.3413411311492 1759.0269155029077 766.2856068836658
s 4.907254124384257 -5.7606896242771715 10.667943748661429 -5.7606896242771715
S 1780.3628030002305 746.2298726361823 1780.3628030002305 766.2856068836658
z" fill="none" stroke="none"></path>
<circle cx="0" cy="0" r="5.108576532018649" fill="#008fd4" opacity="0.9">
  <animateMotion begin="-0.48680674695771586s" dur="4.83s" repeatCount="indefinite">
    <mpath xlink:href="#path84"></mpath>
  </animateMotion>
</circle><path id="path85" d="M 1824.8945702727829 456.5769995858247
c 0 31.819969565815146 -7.785737234188812 9.139778492308606 -16.925515726497416 9.139778492308606
S 1791.043538819788 488.39696915163984 1791.043538819788 456.5769995858247
s 7.785737234188812 -9.139778492308606 16.925515726497416 -9.139778492308606
S 1824.8945702727829 424.75703002000955 1824.8945702727829 456.5769995858247
z" fill="none" stroke="none"></path>
<circle cx="0" cy="0" r="9.779570407027494" fill="#001f2d" opacity="0.9">
  <animateMotion begin="-4.643995968343397s" dur="4.83s" repeatCount="indefinite">
    <mpath xlink:href="#path85"></mpath>
  </animateMotion>
</circle><path id="path86" d="M 1348.948429540058 576.8610939024658
c 0 26.3190380629449 -6.439764632422688 7.559723698930983 -13.999488331353671 7.559723698930983
S 1320.9494528773507 603.1801319654106 1320.9494528773507 576.8610939024658
s 6.439764632422688 -7.559723698930983 13.999488331353671 -7.559723698930983
S 1348.948429540058 550.5420558395209 1348.948429540058 576.8610939024658
z" fill="none" stroke="none"></path>
<circle cx="0" cy="0" r="9.945540807051184" fill="#001f2d" opacity="0.9">
  <animateMotion begin="-2.3579563954891283s" dur="4.83s" repeatCount="indefinite">
    <mpath xlink:href="#path86"></mpath>
  </animateMotion>
</circle><path id="path87" d="M 1795.378685017427 754.1401665836931
c 0 25.05024192230088 -6.129314512903406 7.195282254277912 -13.324596767181319 7.195282254277912
S 1768.7294914830645 779.190408505994 1768.7294914830645 754.1401665836931
s 6.129314512903406 -7.195282254277912 13.324596767181319 -7.195282254277912
S 1795.378685017427 729.0899246613923 1795.378685017427 754.1401665836931
z" fill="none" stroke="none"></path>
<circle cx="0" cy="0" r="7.358530757577094" fill="#001f2d" opacity="0.9">
  <animateMotion begin="-0.6249367154000998s" dur="4.83s" repeatCount="indefinite">
    <mpath xlink:href="#path87"></mpath>
  </animateMotion>
</circle><path id="path88" d="M 339.9297842585113 745.9951233767175
c 0 27.971344891773633 -6.84405247351908 8.034322468913704 -14.878374942432783 8.034322468913704
S 310.1730343736457 773.9664682684911 310.1730343736457 745.9951233767175
s 6.84405247351908 -8.034322468913704 14.878374942432783 -8.034322468913704
S 339.9297842585113 718.0237784849439 339.9297842585113 745.9951233767175
z" fill="none" stroke="none"></path>
<circle cx="0" cy="0" r="7.177840270462626" fill="#008fd4" opacity="0.9">
  <animateMotion begin="-4.7446614327567325s" dur="4.83s" repeatCount="indefinite">
    <mpath xlink:href="#path88"></mpath>
  </animateMotion>
</circle><path id="path89" d="M 268.06450431129025 487.2266650419113
c 0 29.94076224989322 -7.32593118880366 8.600006178160818 -15.925937366964478 8.600006178160818
S 236.21262957736127 517.1674272918045 236.21262957736127 487.2266650419113
s 7.32593118880366 -8.600006178160818 15.925937366964478 -8.600006178160818
S 268.06450431129025 457.2859027920181 268.06450431129025 487.2266650419113
z" fill="none" stroke="none"></path>
<circle cx="0" cy="0" r="7.119128161005326" fill="#001f2d" opacity="0.9">
  <animateMotion begin="-3.8562909959326155s" dur="4.83s" repeatCount="indefinite">
    <mpath xlink:href="#path89"></mpath>
  </animateMotion>
</circle><path id="path90" d="M 390.0304025619709 1016.9205328282053
c 0 29.278030662168934 -7.163773459892398 8.409647105091077 -15.573420564983476 8.409647105091077
S 358.883561432004 1046.1985634903742 358.883561432004 1016.9205328282053
s 7.163773459892398 -8.409647105091077 15.573420564983476 -8.409647105091077
S 390.0304025619709 987.6425021660364 390.0304025619709 1016.9205328282053
z" fill="none" stroke="none"></path>
<circle cx="0" cy="0" r="5.249757952658562" fill="#001f2d" opacity="0.9">
  <animateMotion begin="-1.3129309596692333s" dur="4.83s" repeatCount="indefinite">
    <mpath xlink:href="#path90"></mpath>
  </animateMotion>
</circle><path id="path91" d="M 341.60580529865604 510.8368005523489
c 0 29.324422255742487 -7.175124594490182 8.422972350053694 -15.598096944543876 8.422972350053694
S 310.40961140956824 540.1612228080913 310.40961140956824 510.8368005523489
s 7.175124594490182 -8.422972350053694 15.598096944543876 -8.422972350053694
S 341.60580529865604 481.5123782966064 341.60580529865604 510.8368005523489
z" fill="none" stroke="none"></path>
<circle cx="0" cy="0" r="8.304405147408273" fill="#001f2d" opacity="0.9">
  <animateMotion begin="-1.6126868018153995s" dur="4.83s" repeatCount="indefinite">
    <mpath xlink:href="#path91"></mpath>
  </animateMotion>
</circle><path id="path92" d="M 1540.5885646725096 180.2802029369876
c 0 20.16731918688314 -4.93455682232247 5.792740617508987 -10.727297439831458 5.792740617508987
S 1519.1339697928465 200.44752212387073 1519.1339697928465 180.2802029369876
s 4.93455682232247 -5.792740617508987 10.727297439831458 -5.792740617508987
S 1540.5885646725096 160.11288375010446 1540.5885646725096 180.2802029369876
z" fill="none" stroke="none"></path>
<circle cx="0" cy="0" r="9.590432445213334" fill="#008fd4" opacity="0.9">
  <animateMotion begin="-2.2707240640656683s" dur="4.83s" repeatCount="indefinite">
    <mpath xlink:href="#path92"></mpath>
  </animateMotion>
</circle><path id="path93" d="M 1115.873140323451 330.3581190796275
c 0 36.91686906553914 -9.032850941568086 10.603781540101668 -19.636632481669754 10.603781540101668
S 1076.5998753601116 367.2749881451666 1076.5998753601116 330.3581190796275
s 9.032850941568086 -10.603781540101668 19.636632481669754 -10.603781540101668
S 1115.873140323451 293.4412500140884 1115.873140323451 330.3581190796275
z" fill="none" stroke="none"></path>
<circle cx="0" cy="0" r="5.1943339367078" fill="#008fd4" opacity="0.9">
  <animateMotion begin="-2.544807694233611s" dur="4.83s" repeatCount="indefinite">
    <mpath xlink:href="#path93"></mpath>
  </animateMotion>
</circle><path id="path94" d="M 140.96642806735497 115.55969267944022
c 0 19.855820542344457 -4.858339068871516 5.703267602588302 -10.561606671459817 5.703267602588302
S 119.84321472443533 135.41551322178466 119.84321472443533 115.55969267944022
s 4.858339068871516 -5.703267602588302 10.561606671459817 -5.703267602588302
S 140.96642806735497 95.70387213709576 140.96642806735497 115.55969267944022
z" fill="none" stroke="none"></path>
<circle cx="0" cy="0" r="8.574129369829887" fill="#008fd4" opacity="0.9">
  <animateMotion begin="-2.7345022999165716s" dur="4.83s" repeatCount="indefinite">
    <mpath xlink:href="#path94"></mpath>
  </animateMotion>
</circle><path id="path95" d="M 728.546187818415 434.9024274453612
c 0 28.055082698939998 -6.8645415114427655 8.058374817780638 -14.922916329223403 8.058374817780638
S 698.7003551599681 462.9575101443012 698.7003551599681 434.9024274453612
s 6.8645415114427655 -8.058374817780638 14.922916329223403 -8.058374817780638
S 728.546187818415 406.8473447464212 728.546187818415 434.9024274453612
z" fill="none" stroke="none"></path>
<circle cx="0" cy="0" r="8.289325188069391" fill="#001f2d" opacity="0.9">
  <animateMotion begin="-0.1848808218397777s" dur="4.83s" repeatCount="indefinite">
    <mpath xlink:href="#path95"></mpath>
  </animateMotion>
</circle><path id="path96" d="M 88.47225494813931 458.0973585792856
c 0 24.547896121290837 -6.006400114783927 7.050991439094177 -13.057391553878103 7.050991439094177
S 62.3574718403831 482.6452547005764 62.3574718403831 458.0973585792856
s 6.006400114783927 -7.050991439094177 13.057391553878103 -7.050991439094177
S 88.47225494813931 433.54946245799476 88.47225494813931 458.0973585792856
z" fill="none" stroke="none"></path>
<circle cx="0" cy="0" r="5.54331575901032" fill="#001f2d" opacity="0.9">
  <animateMotion begin="-0.17112577105312932s" dur="4.83s" repeatCount="indefinite">
    <mpath xlink:href="#path96"></mpath>
  </animateMotion>
</circle><path id="path97" d="M 395.9935915920214 461.19508054971914
c 0 31.99115194781378 -7.827622285103371 9.188947899903958 -17.01657018500733 9.188947899903958
S 361.9604512220068 493.1862324975329 361.9604512220068 461.19508054971914
s 7.827622285103371 -9.188947899903958 17.01657018500733 -9.188947899903958
S 395.9935915920214 429.2039286019054 395.9935915920214 461.19508054971914
z" fill="none" stroke="none"></path>
<circle cx="0" cy="0" r="6.902605604334351" fill="#001f2d" opacity="0.9">
  <animateMotion begin="-2.754641509257806s" dur="4.83s" repeatCount="indefinite">
    <mpath xlink:href="#path97"></mpath>
  </animateMotion>
</circle><path id="path98" d="M 1558.9759040194522 528.2519424571204
c 0 19.444418788986578 -4.757676937730758 5.585099013857847 -10.342775951588605 5.585099013857847
S 1538.2903521162748 547.696361246107 1538.2903521162748 528.2519424571204
s 4.757676937730758 -5.585099013857847 10.342775951588605 -5.585099013857847
S 1558.9759040194522 508.80752366813385 1558.9759040194522 528.2519424571204
z" fill="none" stroke="none"></path>
<circle cx="0" cy="0" r="7.726078452971277" fill="#008fd4" opacity="0.9">
  <animateMotion begin="-1.6144267372845413s" dur="4.83s" repeatCount="indefinite">
    <mpath xlink:href="#path98"></mpath>
  </animateMotion>
</circle><path id="path99" d="M 1339.3844420817984 875.7686894049157
c 0 24.220254868921312 -5.926232574310533 6.956881717668888 -12.883114291979421 6.956881717668888
S 1313.6182134978396 899.988944273837 1313.6182134978396 875.7686894049157
s 5.926232574310533 -6.956881717668888 12.883114291979421 -6.956881717668888
S 1339.3844420817984 851.5484345359944 1339.3844420817984 875.7686894049157
z" fill="none" stroke="none"></path>
<circle cx="0" cy="0" r="6.908078480559729" fill="#008fd4" opacity="0.9">
  <animateMotion begin="-3.773549612927744s" dur="4.83s" repeatCount="indefinite">
    <mpath xlink:href="#path99"></mpath>
  </animateMotion>
</circle></g>
</svg>
